<svg width="26" height="26" viewBox="0 0 26 26" fill="none" xmlns="http://www.w3.org/2000/svg">
<path d="M25.2421 21.3056C25.2421 22.5506 24.7643 23.7446 23.914 24.625C23.0636 25.5054 21.9102 26 20.7076 26H4.66243C3.45981 26 2.30644 25.5054 1.45605 24.625C0.60567 23.7446 0.12793 22.5506 0.12793 21.3056V4.69444C0.12793 3.4494 0.60567 2.25535 1.45605 1.37497C2.30644 0.494592 3.45981 0 4.66243 0H20.7076C21.9102 0 23.0636 0.494592 23.914 1.37497C24.7643 2.25535 25.2421 3.4494 25.2421 4.69444V21.3056ZM19.6612 6.86111C19.6611 6.59932 19.5696 6.3464 19.4034 6.1491C19.2372 5.95181 19.0076 5.82349 18.757 5.78789L18.6147 5.77778H6.75528L6.61296 5.78789C6.3625 5.82357 6.13299 5.95191 5.96685 6.1492C5.8007 6.34649 5.70917 6.59937 5.70917 6.86111C5.70917 7.12285 5.8007 7.37574 5.96685 7.57302C6.13299 7.77031 6.3625 7.89866 6.61296 7.93433L6.75528 7.94444H18.6147L18.757 7.93433C19.0076 7.89873 19.2372 7.77042 19.4034 7.57312C19.5696 7.37583 19.6611 7.1229 19.6612 6.86111ZM19.6612 19.1389C19.6611 18.8771 19.5696 18.6242 19.4034 18.4269C19.2372 18.2296 19.0076 18.1013 18.757 18.0657L18.6147 18.0556H6.75528L6.61296 18.0657C6.3625 18.1013 6.13299 18.2297 5.96685 18.427C5.8007 18.6243 5.70917 18.8772 5.70917 19.1389C5.70917 19.4006 5.8007 19.6535 5.96685 19.8508C6.13299 20.0481 6.3625 20.1764 6.61296 20.2121L6.75528 20.2222H18.6147L18.757 20.2121C19.0076 20.1765 19.2372 20.0482 19.4034 19.8509C19.5696 19.6536 19.6611 19.4007 19.6612 19.1389ZM19.6612 13C19.6611 12.7382 19.5696 12.4853 19.4034 12.288C19.2372 12.0907 19.0076 11.9624 18.757 11.9268L18.6147 11.9167H6.75528L6.61296 11.9268C6.3625 11.9625 6.13299 12.0908 5.96685 12.2881C5.8007 12.4854 5.70917 12.7383 5.70917 13C5.70917 13.2617 5.8007 13.5146 5.96685 13.7119C6.13299 13.9092 6.3625 14.0375 6.61296 14.0732L6.75528 14.0833H18.6147L18.757 14.0732C19.0076 14.0376 19.2372 13.9093 19.4034 13.712C19.5696 13.5147 19.6611 13.2618 19.6612 13Z" fill="black"/>
</svg>
