<svg width="24" height="24" viewBox="0 0 24 24" fill="none" xmlns="http://www.w3.org/2000/svg">
<g clip-path="url(#clip0_2084_733)">
<path d="M12.79 21.0001L3 11.2101V13.2101C3 13.7401 3.21 14.2501 3.59 14.6201L11.38 22.4101C12.16 23.1901 13.43 23.1901 14.21 22.4101L20.42 16.2001C21.2 15.4201 21.2 14.1501 20.42 13.3701L12.79 21.0001Z" fill="black"/>
<path d="M11.38 17.4101C11.77 17.8001 12.28 18.0001 12.79 18.0001C13.3 18.0001 13.81 17.8001 14.2 17.4101L20.41 11.2001C21.19 10.4201 21.19 9.15006 20.41 8.37006L12.62 0.580061C12.25 0.210061 11.74 6.10352e-05 11.21 6.10352e-05H5C3.9 6.10352e-05 3 0.900061 3 2.00006V8.21006C3 8.74006 3.21 9.25006 3.59 9.62006L11.38 17.4101ZM5 2.00006H11.21L19 9.79006L12.79 16.0001L5 8.21006V2.00006Z" fill="black"/>
<path d="M7.25 5.50006C7.94036 5.50006 8.5 4.94042 8.5 4.25006C8.5 3.55971 7.94036 3.00006 7.25 3.00006C6.55964 3.00006 6 3.55971 6 4.25006C6 4.94042 6.55964 5.50006 7.25 5.50006Z" fill="black"/>
</g>
<defs>
<clipPath id="clip0_2084_733">
<rect width="24" height="24" fill="white"/>
</clipPath>
</defs>
</svg>
