<svg width="34" height="27" viewBox="0 0 34 27" fill="none" xmlns="http://www.w3.org/2000/svg">
<path fill-rule="evenodd" clip-rule="evenodd" d="M1.5559 8.70729C0.926758 9.71159 0.926758 10.8538 0.926758 13.1383V20.271C0.926758 23.4454 0.926758 25.0318 2.2723 26.0159C3.49156 26.9108 5.38818 26.9916 8.96329 27V18.5888C8.96329 17.6965 9.44712 16.8407 10.3083 16.2097C11.1696 15.5788 12.3376 15.2243 13.5556 15.2243H20.444C21.662 15.2243 22.8301 15.5788 23.6913 16.2097C24.5525 16.8407 25.0363 17.6965 25.0363 18.5888V27C28.6115 26.9916 30.5081 26.9092 31.7273 26.0142C33.0729 25.0284 33.0729 23.4437 33.0729 20.271V13.1383C33.0729 10.8538 33.0729 9.71159 32.4437 8.70729C31.8123 7.70299 30.6298 6.96112 28.2624 5.47402L25.9663 4.03234C21.684 1.3458 19.5485 0 16.9998 0C14.4511 0 12.3134 1.34411 8.03335 4.03065L5.73719 5.47234C3.37216 6.95944 2.18735 7.70131 1.5582 8.70561M20.444 27V18.5888H13.5556V27H20.444Z" fill="black"/>
</svg>
