<svg width="37" height="27" viewBox="0 0 37 27" fill="none" xmlns="http://www.w3.org/2000/svg">
<path d="M28.95 12.69C28.2506 12.69 27.5799 12.4909 27.0853 12.1364C26.5908 11.782 26.313 11.3013 26.313 10.8C26.313 10.2987 26.5908 9.81801 27.0853 9.46357C27.5799 9.10912 28.2506 8.91 28.95 8.91C29.6493 8.91 30.3201 9.10912 30.8146 9.46357C31.3091 9.81801 31.5869 10.2987 31.5869 10.8C31.5869 11.3013 31.3091 11.782 30.8146 12.1364C30.3201 12.4909 29.6493 12.69 28.95 12.69ZM18.402 12.69C17.7026 12.69 17.0319 12.4909 16.5374 12.1364C16.0429 11.782 15.765 11.3013 15.765 10.8C15.765 10.2987 16.0429 9.81801 16.5374 9.46357C17.0319 9.10912 17.7026 8.91 18.402 8.91C19.1014 8.91 19.7721 9.10912 20.2666 9.46357C20.7612 9.81801 21.039 10.2987 21.039 10.8C21.039 11.3013 20.7612 11.782 20.2666 12.1364C19.7721 12.4909 19.1014 12.69 18.402 12.69ZM7.85407 12.69C7.1547 12.69 6.48397 12.4909 5.98944 12.1364C5.49491 11.782 5.21708 11.3013 5.21708 10.8C5.21708 10.2987 5.49491 9.81801 5.98944 9.46357C6.48397 9.10912 7.1547 8.91 7.85407 8.91C8.55344 8.91 9.22417 9.10912 9.7187 9.46357C10.2132 9.81801 10.4911 10.2987 10.4911 10.8C10.4911 11.3013 10.2132 11.782 9.7187 12.1364C9.22417 12.4909 8.55344 12.69 7.85407 12.69ZM0.319824 0V21.6H9.36092V27L19.9089 21.6H36.4842V0H0.319824Z" fill="black"/>
</svg>
