<svg width="35" height="30" viewBox="0 0 35 30" fill="none" xmlns="http://www.w3.org/2000/svg">
<path fill-rule="evenodd" clip-rule="evenodd" d="M11.6667 8.75C11.6667 7.42392 12.2812 6.15215 13.3752 5.21447C14.4692 4.27678 15.9529 3.75 17.5 3.75C19.0471 3.75 20.5308 4.27678 21.6248 5.21447C22.7188 6.15215 23.3333 7.42392 23.3333 8.75C23.3333 10.0761 22.7188 11.3479 21.6248 12.2855C20.5308 13.2232 19.0471 13.75 17.5 13.75C15.9529 13.75 14.4692 13.2232 13.3752 12.2855C12.2812 11.3479 11.6667 10.0761 11.6667 8.75ZM11.6667 16.25C9.7328 16.25 7.87813 16.9085 6.51068 18.0806C5.14323 19.2527 4.375 20.8424 4.375 22.5C4.375 23.4946 4.83594 24.4484 5.65641 25.1517C6.47688 25.8549 7.58968 26.25 8.75 26.25H26.25C27.4103 26.25 28.5231 25.8549 29.3436 25.1517C30.1641 24.4484 30.625 23.4946 30.625 22.5C30.625 20.8424 29.8568 19.2527 28.4893 18.0806C27.1219 16.9085 25.2672 16.25 23.3333 16.25H11.6667Z" fill="black"/>
</svg>
