<svg width="28" height="25" viewBox="0 0 28 25" fill="none" xmlns="http://www.w3.org/2000/svg">
<g clip-path="url(#clip0_67_499)">
<path d="M25.375 0.78125H2.625C1.65812 0.78125 0.875 1.48047 0.875 2.34375V22.6562C0.875 23.5195 1.65812 24.2188 2.625 24.2188H25.375C26.3419 24.2188 27.125 23.5195 27.125 22.6562V2.34375C27.125 1.48047 26.3419 0.78125 25.375 0.78125Z" fill="#BDBDBD"/>
<path d="M23.9969 0.78125H2.51563C2.08148 0.784062 1.66601 0.939296 1.35901 1.2134C1.05202 1.4875 0.878154 1.85846 0.875005 2.24609V21.3672C0.872817 22.1758 1.60563 22.8301 2.51125 22.832H23.975C24.8806 22.834 25.6134 22.1797 25.6156 21.3711V2.24609C25.6353 1.45508 24.9309 0.798828 24.045 0.78125H23.9969Z" fill="#E0E0E0"/>
<path d="M8.68439 2.51965C8.68439 2.07043 8.33439 1.93371 6.32189 1.9923C4.63751 2.0509 3.80626 2.22668 3.30314 2.77355C2.88751 3.22277 2.80001 3.8673 2.73439 4.41418C2.69064 4.84387 2.25314 7.32434 3.50001 6.60168C3.64876 6.51379 3.76907 6.3927 3.85001 6.25012C4.11251 5.83996 4.26564 5.56652 4.57189 5.15637C5.73126 3.47668 8.68439 3.10559 8.68439 2.51965Z" fill="white"/>
<path d="M11.7512 19.1543C10.8741 18.5586 10.3031 17.6211 10.3031 16.5625C10.3031 14.9219 11.6703 13.5664 13.4378 13.3418C13.3131 11.7852 11.8891 11.0762 9.31437 11.0762H7.64968C5.32218 11.0762 3.85437 11.9961 3.85437 13.7969V18.7051C3.85437 19.4531 4.53468 20.0605 5.37249 20.0605H10.2331C11.3772 20.0625 11.7512 19.1543 11.7512 19.1543Z" fill="black"/>
<path d="M8.65155 10.3711C10.4903 10.3711 11.9809 9.04019 11.9809 7.39844C11.9809 5.75669 10.4903 4.42578 8.65155 4.42578C6.81279 4.42578 5.32217 5.75669 5.32217 7.39844C5.32217 9.04019 6.81279 10.3711 8.65155 10.3711Z" fill="black"/>
<path d="M19.7159 11.0957H18.3312C16.6994 11.0957 15.3212 11.8789 14.8641 13.416C16.4325 13.7793 17.5941 15.0508 17.5941 16.5645C17.5941 17.6211 17.0231 18.5605 16.1459 19.1562C16.1459 19.1562 16.5178 20.0625 17.6641 20.0625H22.2666C23.1044 20.0625 23.7847 19.4551 23.7847 18.707V14.334C23.7891 12.1309 21.7197 11.0957 19.7159 11.0957ZM23.1569 8.96875C22.7259 8.19727 22.7391 7.50195 22.5116 6.77734L22.505 6.7832C22.1878 5.43555 20.8512 4.42383 19.2478 4.42383C17.6466 4.42383 16.31 5.43359 15.9906 6.7793V6.77734C15.7631 7.5 15.7784 8.19531 15.3453 8.96875C14.98 9.62305 14.6081 9.58203 14.6081 9.93164C14.6081 10.2812 15.1703 10.5547 15.8659 10.6328C16.4281 10.6973 17.0341 10.6523 17.5022 10.4883C16.7322 9.98438 16.3603 9.23242 16.2619 8.87891C16.2006 8.66016 16.135 8.45313 16.2772 8.42773C16.4566 8.39453 16.4106 8.68945 16.7803 9.12305C17.5306 9.99805 18.1475 10.3047 19.2391 10.3066C20.3306 10.3047 20.9475 9.99805 21.6978 9.12305C22.0697 8.69141 22.0194 8.43164 22.2009 8.42773C22.3716 8.42578 22.2819 8.69531 22.2206 8.91406C22.1222 9.26367 21.7547 9.99609 20.9956 10.4883C21.4637 10.6523 22.0697 10.6973 22.6341 10.6328C23.3297 10.5527 23.8919 10.2812 23.8919 9.93164C23.8941 9.58203 23.5222 9.62305 23.1569 8.96875Z" fill="black"/>
<path d="M13.9541 18.9609C15.4364 18.9609 16.6381 17.888 16.6381 16.5645C16.6381 15.2409 15.4364 14.168 13.9541 14.168C12.4717 14.168 11.27 15.2409 11.27 16.5645C11.27 17.888 12.4717 18.9609 13.9541 18.9609Z" fill="black"/>
<path d="M11.2875 21.6348C11.0687 21.6348 10.9047 21.4492 10.9616 21.2617C11.2591 20.291 12.4819 19.502 13.9475 19.502C15.4197 19.502 16.6447 20.2695 16.9378 21.2637C16.9925 21.4512 16.8306 21.6367 16.6119 21.6367C16.6119 21.6348 11.2875 21.6348 11.2875 21.6348Z" fill="black"/>
<path d="M11.2875 21.6348C11.0687 21.6348 10.9047 21.4492 10.9616 21.2617C11.2591 20.291 12.4819 19.502 13.9475 19.502C15.4197 19.502 16.6447 20.2695 16.9378 21.2637C16.9925 21.4512 16.8306 21.6367 16.6119 21.6367C16.6119 21.6348 11.2875 21.6348 11.2875 21.6348Z" fill="black"/>
</g>
<defs>
<clipPath id="clip0_67_499">
<rect width="28" height="25" fill="white"/>
</clipPath>
</defs>
</svg>
