<svg width="40" height="36" viewBox="0 0 40 36" fill="none" xmlns="http://www.w3.org/2000/svg">
<path d="M33.1667 18.9901C32.8995 18.7164 32.7521 18.3644 32.7521 18.0001C32.7521 17.6357 32.8995 17.2838 33.1667 17.0101L35.3 14.8501C35.5351 14.6141 35.681 14.3171 35.717 14.0018C35.7529 13.6866 35.6769 13.3691 35.5 13.0951L32.1667 7.90509C31.9915 7.63137 31.7248 7.4144 31.4046 7.28512C31.0843 7.15583 30.7269 7.12082 30.3833 7.18509L27.25 7.75509C26.8513 7.82923 26.4362 7.76947 26.0831 7.58709C25.73 7.4047 25.4633 7.11231 25.3333 6.76509L24.3167 4.02009C24.2048 3.72216 23.9918 3.46338 23.7077 3.28035C23.4236 3.09732 23.0827 2.99928 22.7333 3.00009H16.0667C15.7032 2.98301 15.3435 3.07348 15.0426 3.25766C14.7416 3.44184 14.516 3.70962 14.4 4.02009L13.4667 6.76509C13.3367 7.11231 13.0699 7.4047 12.7168 7.58709C12.3637 7.76947 11.9487 7.82923 11.55 7.75509L8.33332 7.18509C8.00757 7.14366 7.67549 7.18992 7.3789 7.31805C7.08231 7.44617 6.83449 7.65043 6.66666 7.90509L3.33332 13.0951C3.15192 13.3661 3.07036 13.6817 3.10029 13.9969C3.13023 14.3121 3.27013 14.6107 3.49999 14.8501L5.61666 17.0101C5.88385 17.2838 6.03121 17.6357 6.03121 18.0001C6.03121 18.3644 5.88385 18.7164 5.61666 18.9901L3.49999 21.1501C3.27013 21.3894 3.13023 21.688 3.10029 22.0033C3.07036 22.3185 3.15192 22.6341 3.33332 22.9051L6.66666 28.0951C6.84182 28.3688 7.10852 28.5858 7.42874 28.7151C7.74897 28.8443 8.10636 28.8793 8.44999 28.8151L11.5833 28.2451C11.982 28.1709 12.3971 28.2307 12.7502 28.4131C13.1033 28.5955 13.37 28.8879 13.5 29.2351L14.5167 31.9801C14.6326 32.2906 14.8583 32.5583 15.1593 32.7425C15.4602 32.9267 15.8199 33.0172 16.1833 33.0001H22.85C23.1994 33.0009 23.5402 32.9029 23.8244 32.7198C24.1085 32.5368 24.3215 32.278 24.4333 31.9801L25.45 29.2351C25.58 28.8879 25.8467 28.5955 26.1998 28.4131C26.5529 28.2307 26.968 28.1709 27.3667 28.2451L30.5 28.8151C30.8436 28.8793 31.201 28.8443 31.5212 28.7151C31.8415 28.5858 32.1082 28.3688 32.2833 28.0951L35.6167 22.9051C35.7936 22.6311 35.8696 22.3136 35.8336 21.9983C35.7977 21.683 35.6517 21.3861 35.4167 21.1501L33.1667 18.9901ZM30.6833 21.0001L32.0167 22.3501L29.8833 25.6801L27.9167 25.3201C26.7163 25.0993 25.4676 25.2828 24.4076 25.8358C23.3477 26.3888 22.5502 27.2728 22.1667 28.3201L21.5333 30.0001H17.2667L16.6667 28.2901C16.2831 27.2428 15.4856 26.3588 14.4257 25.8058C13.3657 25.2528 12.117 25.0693 10.9167 25.2901L8.94999 25.6501L6.78332 22.3351L8.11666 20.9851C8.93658 20.1601 9.38988 19.092 9.38988 17.9851C9.38988 16.8782 8.93658 15.8101 8.11666 14.9851L6.78332 13.6351L8.91666 10.3351L10.8833 10.6951C12.0837 10.9159 13.3324 10.7324 14.3923 10.1794C15.4523 9.62636 16.2497 8.74233 16.6333 7.69509L17.2667 6.00009H21.5333L22.1667 7.71009C22.5502 8.75732 23.3477 9.64136 24.4076 10.1944C25.4676 10.7474 26.7163 10.9309 27.9167 10.7101L29.8833 10.3501L32.0167 13.6801L30.6833 15.0301C29.8726 15.8532 29.4249 16.9151 29.4249 18.0151C29.4249 19.1151 29.8726 20.1769 30.6833 21.0001ZM19.4 12.0001C18.0814 12.0001 16.7925 12.352 15.6962 13.0113C14.5999 13.6706 13.7454 14.6076 13.2408 15.704C12.7362 16.8003 12.6042 18.0067 12.8614 19.1706C13.1187 20.3345 13.7536 21.4036 14.6859 22.2427C15.6183 23.0818 16.8062 23.6533 18.0994 23.8848C19.3926 24.1163 20.733 23.9975 21.9512 23.5434C23.1694 23.0892 24.2106 22.3202 24.9431 21.3335C25.6757 20.3468 26.0667 19.1868 26.0667 18.0001C26.0667 16.4088 25.3643 14.8827 24.114 13.7574C22.8638 12.6322 21.1681 12.0001 19.4 12.0001ZM19.4 21.0001C18.7407 21.0001 18.0963 20.8241 17.5481 20.4945C16.9999 20.1649 16.5727 19.6963 16.3204 19.1481C16.0681 18.6 16.0021 17.9968 16.1307 17.4148C16.2593 16.8329 16.5768 16.2983 17.043 15.8788C17.5091 15.4592 18.1031 15.1735 18.7497 15.0577C19.3963 14.942 20.0665 15.0014 20.6756 15.2284C21.2847 15.4555 21.8053 15.84 22.1716 16.3334C22.5378 16.8267 22.7333 17.4067 22.7333 18.0001C22.7333 18.7957 22.3821 19.5588 21.757 20.1214C21.1319 20.684 20.284 21.0001 19.4 21.0001Z" fill="black"/>
</svg>
