<svg width="29" height="30" viewBox="0 0 29 30" fill="none" xmlns="http://www.w3.org/2000/svg">
<path d="M14.5 2.5C7.82996 2.5 2.41663 8.1 2.41663 15C2.41663 21.9 7.82996 27.5 14.5 27.5C21.17 27.5 26.5833 21.9 26.5833 15C26.5833 8.1 21.17 2.5 14.5 2.5ZM14.5 25C9.17121 25 4.83329 20.5125 4.83329 15C4.83329 9.4875 9.17121 5 14.5 5C19.8287 5 24.1666 9.4875 24.1666 15C24.1666 20.5125 19.8287 25 14.5 25ZM13.2916 20H15.7083V22.5H13.2916V20ZM15.237 7.55C12.7479 7.175 10.5487 8.7625 9.88413 11.0375C9.66663 11.7625 10.1983 12.5 10.9354 12.5H11.177C11.6725 12.5 12.0712 12.1375 12.2404 11.6625C12.627 10.55 13.775 9.7875 15.0195 10.0625C16.1675 10.3125 17.0133 11.475 16.9166 12.6875C16.7958 14.3625 14.9591 14.725 13.9562 16.2875C13.9562 16.3 13.9441 16.3 13.9441 16.3125C13.932 16.3375 13.92 16.35 13.9079 16.375C13.7991 16.5625 13.6904 16.775 13.6058 17C13.5937 17.0375 13.5695 17.0625 13.5575 17.1C13.5454 17.125 13.5454 17.15 13.5333 17.1875C13.3883 17.6125 13.2916 18.125 13.2916 18.75H15.7083C15.7083 18.225 15.8412 17.7875 16.0466 17.4125C16.0708 17.375 16.0829 17.3375 16.107 17.3C16.2037 17.125 16.3245 16.9625 16.4454 16.8125C16.4575 16.8 16.4695 16.775 16.4816 16.7625C16.6025 16.6125 16.7354 16.475 16.8804 16.3375C18.0404 15.2 19.6112 14.275 19.285 11.8875C18.995 9.7125 17.3395 7.875 15.237 7.55Z" fill="black"/>
</svg>
