<svg width="29" height="30" viewBox="0 0 29 30" fill="none" xmlns="http://www.w3.org/2000/svg">
<path d="M14.5 2.5C7.83002 2.5 2.41669 8.1 2.41669 15C2.41669 21.9 7.83002 27.5 14.5 27.5C21.17 27.5 26.5834 21.9 26.5834 15C26.5834 8.1 21.17 2.5 14.5 2.5ZM14.5 25C9.17127 25 4.83335 20.5125 4.83335 15C4.83335 9.4875 9.17127 5 14.5 5C19.8288 5 24.1667 9.4875 24.1667 15C24.1667 20.5125 19.8288 25 14.5 25ZM13.2917 20H15.7084V22.5H13.2917V20ZM15.2371 7.55C12.7479 7.175 10.5488 8.7625 9.88419 11.0375C9.66669 11.7625 10.1984 12.5 10.9354 12.5H11.1771C11.6725 12.5 12.0713 12.1375 12.2404 11.6625C12.6271 10.55 13.775 9.7875 15.0196 10.0625C16.1675 10.3125 17.0134 11.475 16.9167 12.6875C16.7959 14.3625 14.9592 14.725 13.9563 16.2875C13.9563 16.3 13.9442 16.3 13.9442 16.3125C13.9321 16.3375 13.92 16.35 13.9079 16.375C13.7992 16.5625 13.6904 16.775 13.6059 17C13.5938 17.0375 13.5696 17.0625 13.5575 17.1C13.5454 17.125 13.5454 17.15 13.5334 17.1875C13.3884 17.6125 13.2917 18.125 13.2917 18.75H15.7084C15.7084 18.225 15.8413 17.7875 16.0467 17.4125C16.0709 17.375 16.0829 17.3375 16.1071 17.3C16.2038 17.125 16.3246 16.9625 16.4454 16.8125C16.4575 16.8 16.4696 16.775 16.4817 16.7625C16.6025 16.6125 16.7354 16.475 16.8804 16.3375C18.0404 15.2 19.6113 14.275 19.285 11.8875C18.995 9.7125 17.3396 7.875 15.2371 7.55Z" fill="black"/>
</svg>
