<svg width="22" height="24" viewBox="0 0 22 24" fill="none" xmlns="http://www.w3.org/2000/svg">
<path d="M1.6662 22.9464C1.6662 23.1948 1.85286 23.3964 2.08286 23.3964H8.3312V17.9964H13.3312V23.3964H19.5795C19.69 23.3964 19.796 23.349 19.8742 23.2646C19.9523 23.1802 19.9962 23.0657 19.9962 22.9464V12.5964H1.6662V22.9464ZM21.5495 10.0404L19.9962 8.5644V1.8C19.9962 1.32261 19.8206 0.864773 19.508 0.527208C19.1955 0.189642 18.7716 0 18.3295 0C17.8875 0 17.4636 0.189642 17.151 0.527208C16.8385 0.864773 16.6629 1.32261 16.6629 1.8V5.4L11.1345 0.162C11.0589 0.0752321 10.9545 0.0244174 10.8442 0.0207054C10.7339 0.0169934 10.6267 0.0606872 10.5462 0.1422L10.5279 0.162L0.111195 9.9954C0.0563718 10.0592 0.0198693 10.1389 0.00611238 10.2246C-0.0076445 10.3104 0.00193492 10.3987 0.0336897 10.4787C0.0654444 10.5587 0.118011 10.6271 0.185017 10.6755C0.252022 10.7239 0.33059 10.7503 0.411195 10.7514L3.33286 10.8H21.2445C21.3259 10.8002 21.4055 10.7747 21.4736 10.7266C21.5417 10.6785 21.5953 10.61 21.6277 10.5294C21.6601 10.4488 21.67 10.3597 21.6561 10.2732C21.6422 10.1866 21.6052 10.1045 21.5495 10.0404Z" fill="black"/>
</svg>
