<svg width="35" height="40" viewBox="0 0 35 40" fill="none" xmlns="http://www.w3.org/2000/svg">
<path fill-rule="evenodd" clip-rule="evenodd" d="M22.7406 20.7428C22.4564 19.876 21.93 19.1255 21.2337 18.5947C20.5374 18.064 19.7057 17.779 18.8529 17.7792V16.668H16.7916V17.7792C15.6982 17.7792 14.6496 18.2475 13.8764 19.081C13.1033 19.9146 12.6689 21.0451 12.6689 22.224C12.6689 23.4028 13.1033 24.5334 13.8764 25.3669C14.6496 26.2005 15.6982 26.6688 16.7916 26.6688V31.1136C15.8949 31.1136 15.1312 30.4969 14.8467 29.6324C14.8045 29.4909 14.7365 29.3601 14.6465 29.2475C14.5566 29.1349 14.4466 29.0429 14.3231 28.977C14.1996 28.911 14.0651 28.8724 13.9276 28.8635C13.79 28.8546 13.6522 28.8755 13.5222 28.925C13.3923 28.9745 13.2729 29.0515 13.1711 29.1517C13.0693 29.2518 12.9871 29.3729 12.9294 29.5079C12.8718 29.6428 12.8398 29.7889 12.8355 29.9374C12.8311 30.0859 12.8544 30.2338 12.9039 30.3724C13.1881 31.2392 13.7146 31.9897 14.4108 32.5205C15.1071 33.0512 15.9389 33.3362 16.7916 33.336V34.4472H18.8529V33.336C19.9463 33.336 20.9949 32.8677 21.7681 32.0342C22.5412 31.2006 22.9756 30.07 22.9756 28.8912C22.9756 27.7124 22.5412 26.5818 21.7681 25.7483C20.9949 24.9147 19.9463 24.4464 18.8529 24.4464V20.0016C19.2792 20.0015 19.6951 20.1438 20.0432 20.4091C20.3913 20.6744 20.6546 21.0495 20.7968 21.4828C20.8878 21.7607 21.0775 21.9883 21.3241 22.1154C21.4462 22.1783 21.5787 22.2147 21.7138 22.2225C21.849 22.2303 21.9843 22.2092 22.1119 22.1606C22.2395 22.1121 22.357 22.0368 22.4577 21.9393C22.5584 21.8417 22.6402 21.7237 22.6986 21.5921C22.757 21.4604 22.7908 21.3176 22.798 21.1719C22.8052 21.0262 22.7857 20.8804 22.7406 20.7428ZM16.7916 20.0016C16.2449 20.0016 15.7206 20.2357 15.334 20.6525C14.9475 21.0693 14.7303 21.6346 14.7303 22.224C14.7303 22.8134 14.9475 23.3787 15.334 23.7955C15.7206 24.2122 16.2449 24.4464 16.7916 24.4464V20.0016ZM18.8529 31.1136C19.3996 31.1136 19.9239 30.8795 20.3105 30.4627C20.6971 30.0459 20.9143 29.4806 20.9143 28.8912C20.9143 28.3018 20.6971 27.7365 20.3105 27.3197C19.9239 26.9029 19.3996 26.6688 18.8529 26.6688V31.1136Z" fill="white"/>
<path fill-rule="evenodd" clip-rule="evenodd" d="M6.64263 2.91247C9.17189 1.57791 13.3213 0 17.8625 0C22.3087 0 26.349 1.51235 28.8648 2.82912L29.007 2.90358C29.7656 3.30805 30.3778 3.69031 30.8086 4.00033L27.0014 10.0008C35.7785 19.675 42.5582 40 17.8625 40C-6.83331 40 -0.236023 20.0439 8.61739 10.0008L4.83485 4.00033C5.12653 3.79476 5.49654 3.55585 5.93766 3.3025C6.15616 3.17582 6.39115 3.04507 6.64263 2.91247ZM24.5546 9.92194L27.6022 5.1182C24.7679 5.33822 21.3956 6.05606 18.149 7.06948C15.83 7.79176 13.2533 7.68175 10.8673 7.20727C10.266 7.08724 9.66891 6.94418 9.07707 6.77834L11.0559 9.91971C15.2971 11.5476 20.3123 11.5476 24.5546 9.92194ZM9.86553 11.8121C14.8282 13.8789 20.7926 13.8789 25.7553 11.8099C27.8262 14.1646 29.5591 16.84 30.8962 19.7472C32.2897 22.8119 33.0483 25.8755 32.9246 28.5157C32.805 31.0637 31.8754 33.2405 29.7522 34.8585C27.5394 36.5442 23.8176 37.7776 17.8614 37.7776C11.899 37.7776 8.15977 36.5653 5.92632 34.8985C3.78769 33.3017 2.84876 31.1537 2.7158 28.6402C2.57666 26.0288 3.31874 22.9808 4.70705 19.895C6.03145 16.9525 7.87943 14.1201 9.86553 11.8121ZM8.68026 4.35147C9.50479 4.61594 10.3664 4.84596 11.2404 5.02042C13.4564 5.46045 15.6785 5.5249 17.5749 4.93263C19.7848 4.23825 22.0325 3.69234 24.3051 3.29805C22.4087 2.68245 20.1907 2.22241 17.8614 2.22241C14.3108 2.22241 10.9993 3.29027 8.68026 4.35147Z" fill="white"/>
</svg>
