<svg width="34" height="36" viewBox="0 0 34 36" fill="none" xmlns="http://www.w3.org/2000/svg">
<path fill-rule="evenodd" clip-rule="evenodd" d="M8.37838 18H16.7363C20.973 18 23.0926 18 24.283 19.2288C25.4734 20.4576 25.1921 22.355 24.632 26.1509L24.1021 29.7514C23.6626 32.7282 23.4429 34.2172 22.3165 35.1086C21.1902 36 19.5289 36 16.2051 36H8.90954C5.58698 36 3.92445 36 2.79809 35.1086C1.67174 34.2172 1.45199 32.7282 1.0125 29.7514L0.482599 26.1522C-0.078695 22.355 -0.358714 20.4576 0.83168 19.2288C2.02207 18 4.14168 18 8.37838 18ZM7.53456 31.0201C7.53456 30.5046 8.00293 30.0863 8.58055 30.0863H16.5341C17.1117 30.0863 17.5801 30.5046 17.5801 31.0201C17.5801 31.5355 17.1117 31.9538 16.5341 31.9538H8.58055C8.00293 31.9538 7.53456 31.5355 7.53456 31.0201Z" fill="black"/>
<ellipse cx="23.5" cy="12" rx="10.5" ry="12" fill="#CBA95C"/>
<path d="M19.6605 17V8.27273H23.2997C23.9531 8.27273 24.5 8.36506 24.9403 8.54972C25.3835 8.73437 25.7159 8.9929 25.9375 9.32528C26.1619 9.65767 26.2741 10.0426 26.2741 10.4801C26.2741 10.8125 26.2045 11.1094 26.0653 11.3707C25.9261 11.6293 25.7344 11.8437 25.4901 12.0142C25.2457 12.1847 24.9631 12.304 24.642 12.3722V12.4574C24.9943 12.4744 25.3196 12.5696 25.6179 12.7429C25.919 12.9162 26.1605 13.1577 26.3423 13.4673C26.5241 13.7741 26.6151 14.1378 26.6151 14.5582C26.6151 15.027 26.4957 15.446 26.2571 15.8153C26.0185 16.1818 25.6733 16.4716 25.2216 16.6847C24.7699 16.8949 24.2216 17 23.5767 17H19.6605ZM21.7699 15.2997H23.0739C23.5313 15.2997 23.8679 15.2131 24.0838 15.0398C24.3026 14.8665 24.4119 14.625 24.4119 14.3153C24.4119 14.0909 24.3594 13.8977 24.2543 13.7358C24.1491 13.571 24 13.4446 23.8068 13.3565C23.6136 13.2656 23.3821 13.2202 23.1122 13.2202H21.7699V15.2997ZM21.7699 11.8608H22.9375C23.1676 11.8608 23.3722 11.8224 23.5511 11.7457C23.7301 11.669 23.8693 11.5582 23.9688 11.4134C24.071 11.2685 24.1222 11.0937 24.1222 10.8892C24.1222 10.5966 24.0185 10.3665 23.8111 10.1989C23.6037 10.0312 23.3239 9.94744 22.9716 9.94744H21.7699V11.8608Z" fill="white"/>
</svg>
