<svg width="30" height="23" viewBox="0 0 30 23" fill="none" xmlns="http://www.w3.org/2000/svg">
<path fill-rule="evenodd" clip-rule="evenodd" d="M2.32611 15.4053C-1.42056 8.04933 5.34444 0 15.2728 0H15.8078C19.3738 0.000706927 22.7935 1.13429 25.315 3.15153C27.8366 5.16877 29.2536 7.90453 29.2544 10.7573C29.2549 12.3301 28.868 13.8876 28.1158 15.3408C27.3637 16.7939 26.261 18.1143 24.8708 19.2264C23.4806 20.3386 21.8302 21.2207 20.0137 21.8224C18.1973 22.4242 16.2505 22.7337 14.2844 22.7333H1.25111C0.992144 22.7335 0.739499 22.6693 0.528087 22.5497C0.316676 22.4301 0.156934 22.2608 0.0709365 22.0654C-0.0150611 21.87 -0.0230691 21.658 0.0480193 21.4588C0.119108 21.2596 0.265783 21.083 0.467776 20.9533L3.75278 18.8427C3.82301 18.7977 3.87315 18.7357 3.89568 18.666C3.91821 18.5963 3.91193 18.5226 3.87778 18.456L2.32611 15.4053ZM15.2728 2C7.11778 2 1.56278 8.60933 4.63944 14.6507L6.19278 17.7027C6.42945 18.1679 6.47213 18.6818 6.31449 19.168C6.15684 19.6542 5.80728 20.0868 5.31778 20.4013L4.80278 20.7333H14.2844C15.9222 20.7337 17.5439 20.4759 19.057 19.9747C20.5702 19.4734 21.945 18.7386 23.103 17.8122C24.2611 16.8858 25.1796 15.7859 25.8061 14.5754C26.4326 13.3649 26.7549 12.0675 26.7544 10.7573C26.7536 8.43496 25.6 6.20791 23.5473 4.56574C21.4946 2.92358 18.7107 2.00071 15.8078 2H15.2728Z" fill="#CBA95C"/>
</svg>
