<svg width="28" height="25" viewBox="0 0 28 25" fill="none" xmlns="http://www.w3.org/2000/svg">
<path d="M14.0667 20.9582L17.8667 17.5446L14.0667 14.1311L12.6667 15.3998L14.1 16.6988C13.4778 16.7189 12.8725 16.6283 12.284 16.4269C11.6956 16.2255 11.1676 15.9134 10.7 15.4905C10.2556 15.0877 9.91647 14.6245 9.68269 14.1009C9.44891 13.5773 9.33247 13.0537 9.33336 12.53C9.33336 12.1877 9.38358 11.8453 9.48402 11.503C9.58447 11.1606 9.72313 10.8283 9.90002 10.5061L8.43336 9.17692C8.05558 9.68039 7.7778 10.2141 7.60002 10.778C7.42224 11.3419 7.33336 11.9158 7.33336 12.4998C7.33336 13.2651 7.50002 14.0203 7.83336 14.7655C8.16669 15.5106 8.65558 16.1752 9.30002 16.7592C9.94447 17.3432 10.6667 17.7815 11.4667 18.0739C12.2667 18.3663 13.0889 18.5222 13.9334 18.5415L12.6667 19.6894L14.0667 20.9582ZM19.5667 15.8228C19.9445 15.3193 20.2222 14.7856 20.4 14.2217C20.5778 13.6578 20.6667 13.0839 20.6667 12.4998C20.6667 11.7346 20.5054 10.9741 20.1827 10.2185C19.86 9.46289 19.3769 8.79348 18.7334 8.21025C18.0898 7.62703 17.3618 7.19405 16.5494 6.9113C15.7369 6.62855 14.9094 6.48757 14.0667 6.48838L15.3334 5.31025L13.9334 4.0415L10.1334 7.45505L13.9334 10.8686L15.3334 9.59984L13.8667 8.27067C14.4667 8.27067 15.0778 8.3766 15.7 8.58846C16.3222 8.80032 16.8556 9.10724 17.3 9.50921C17.7445 9.91118 18.0836 10.3744 18.3174 10.8988C18.5511 11.4232 18.6676 11.9468 18.6667 12.4696C18.6667 12.812 18.6169 13.1544 18.5174 13.4967C18.4178 13.8391 18.2787 14.1714 18.1 14.4936L19.5667 15.8228ZM14 24.5832C12.1556 24.5832 10.4222 24.2658 8.80002 23.631C7.1778 22.9962 5.76669 22.1355 4.56669 21.0488C3.36669 19.9621 2.41691 18.6833 1.71736 17.2123C1.0178 15.7414 0.667578 14.1706 0.666689 12.4998C0.6658 10.8291 1.01602 9.25828 1.71736 7.78734C2.41869 6.31639 3.36847 5.03757 4.56669 3.95088C5.76491 2.86418 7.17602 2.00345 8.80002 1.36867C10.424 0.733893 12.1574 0.416504 14 0.416504C15.8427 0.416504 17.576 0.733893 19.2 1.36867C20.824 2.00345 22.2351 2.86418 23.4334 3.95088C24.6316 5.03757 25.5818 6.31639 26.284 7.78734C26.9862 9.25828 27.336 10.8291 27.3334 12.4998C27.3307 14.1706 26.9805 15.7414 26.2827 17.2123C25.5849 18.6833 24.6351 19.9621 23.4334 21.0488C22.2316 22.1355 20.8205 22.9966 19.2 23.6322C17.5796 24.2678 15.8462 24.5848 14 24.5832ZM14 22.1665C16.9778 22.1665 19.5 21.23 21.5667 19.3571C23.6334 17.4842 24.6667 15.1984 24.6667 12.4998C24.6667 9.80123 23.6334 7.51546 21.5667 5.64255C19.5 3.76963 16.9778 2.83317 14 2.83317C11.0222 2.83317 8.50002 3.76963 6.43336 5.64255C4.36669 7.51546 3.33336 9.80123 3.33336 12.4998C3.33336 15.1984 4.36669 17.4842 6.43336 19.3571C8.50002 21.23 11.0222 22.1665 14 22.1665Z" fill="black"/>
</svg>
