<svg width="32" height="29" viewBox="0 0 32 29" fill="none" xmlns="http://www.w3.org/2000/svg">
<path d="M16.0666 22.9582L19.8666 19.5446L16.0666 16.1311L14.6666 17.3998L16.1 18.6988C15.4777 18.7189 14.8724 18.6283 14.284 18.4269C13.6955 18.2255 13.1675 17.9134 12.7 17.4905C12.2555 17.0877 11.9164 16.6245 11.6826 16.1009C11.4489 15.5773 11.3324 15.0537 11.3333 14.53C11.3333 14.1877 11.3835 13.8453 11.484 13.503C11.5844 13.1606 11.7231 12.8283 11.9 12.5061L10.4333 11.1769C10.0555 11.6804 9.77774 12.2141 9.59996 12.778C9.42218 13.3419 9.33329 13.9158 9.33329 14.4998C9.33329 15.2651 9.49996 16.0203 9.83329 16.7655C10.1666 17.5106 10.6555 18.1752 11.3 18.7592C11.9444 19.3432 12.6666 19.7815 13.4666 20.0739C14.2666 20.3663 15.0889 20.5222 15.9333 20.5415L14.6666 21.6894L16.0666 22.9582ZM21.5666 17.8228C21.9444 17.3193 22.2222 16.7856 22.4 16.2217C22.5777 15.6578 22.6666 15.0839 22.6666 14.4998C22.6666 13.7346 22.5053 12.9741 22.1826 12.2185C21.86 11.4629 21.3769 10.7935 20.7333 10.2103C20.0897 9.62703 19.3617 9.19405 18.5493 8.9113C17.7368 8.62855 16.9093 8.48757 16.0666 8.48838L17.3333 7.31025L15.9333 6.0415L12.1333 9.45505L15.9333 12.8686L17.3333 11.5998L15.8666 10.2707C16.4666 10.2707 17.0777 10.3766 17.7 10.5885C18.3222 10.8003 18.8555 11.1072 19.3 11.5092C19.7444 11.9112 20.0835 12.3744 20.3173 12.8988C20.5511 13.4232 20.6675 13.9468 20.6666 14.4696C20.6666 14.812 20.6168 15.1544 20.5173 15.4967C20.4177 15.8391 20.2786 16.1714 20.1 16.4936L21.5666 17.8228ZM16 26.5832C14.1555 26.5832 12.4222 26.2658 10.8 25.631C9.17774 24.9962 7.76663 24.1355 6.56663 23.0488C5.36663 21.9621 4.41685 20.6833 3.71729 19.2123C3.01774 17.7414 2.66752 16.1706 2.66663 14.4998C2.66574 12.8291 3.01596 11.2583 3.71729 9.78734C4.41863 8.31639 5.36841 7.03757 6.56663 5.95088C7.76485 4.86418 9.17596 4.00345 10.8 3.36867C12.424 2.73389 14.1573 2.4165 16 2.4165C17.8426 2.4165 19.576 2.73389 21.2 3.36867C22.824 4.00345 24.2351 4.86418 25.4333 5.95088C26.6315 7.03757 27.5817 8.31639 28.284 9.78734C28.9862 11.2583 29.336 12.8291 29.3333 14.4998C29.3306 16.1706 28.9804 17.7414 28.2826 19.2123C27.5849 20.6833 26.6351 21.9621 25.4333 23.0488C24.2315 24.1355 22.8204 24.9966 21.2 25.6322C19.5795 26.2678 17.8462 26.5848 16 26.5832ZM16 24.1665C18.9777 24.1665 21.5 23.23 23.5666 21.3571C25.6333 19.4842 26.6666 17.1984 26.6666 14.4998C26.6666 11.8012 25.6333 9.51546 23.5666 7.64255C21.5 5.76963 18.9777 4.83317 16 4.83317C13.0222 4.83317 10.5 5.76963 8.43329 7.64255C6.36663 9.51546 5.33329 11.8012 5.33329 14.4998C5.33329 17.1984 6.36663 19.4842 8.43329 21.3571C10.5 23.23 13.0222 24.1665 16 24.1665Z" fill="black"/>
</svg>
