<svg width="24" height="24" viewBox="0 0 24 24" fill="none" xmlns="http://www.w3.org/2000/svg">
<path d="M3 13V11C3 7.25 3 5.375 3.955 4.061C4.26306 3.63667 4.63595 3.26344 5.06 2.955C6.375 2 8.251 2 12 2C15.749 2 17.625 2 18.939 2.955C19.3634 3.26336 19.7366 3.6366 20.045 4.061C21 5.375 21 7.251 21 11V13C21 16.75 21 18.625 20.045 19.939C19.7366 20.3634 19.3634 20.7366 18.939 21.045C17.625 22 15.749 22 12 22C8.251 22 6.375 22 5.061 21.045C4.6366 20.7366 4.26336 20.3634 3.955 19.939C3.424 19.208 3.188 18.304 3.084 17" stroke="black" stroke-width="1.5" stroke-linecap="round"/>
<path d="M15 7C15.5304 7 16.0391 7.21071 16.4142 7.58579C16.7893 7.96086 17 8.46957 17 9C17 9.53043 16.7893 10.0391 16.4142 10.4142C16.0391 10.7893 15.5304 11 15 11H9C8.46957 11 7.96086 10.7893 7.58579 10.4142C7.21071 10.0391 7 9.53043 7 9C7 8.46957 7.21071 7.96086 7.58579 7.58579C7.96086 7.21071 8.46957 7 9 7H11" stroke="black" stroke-width="1.5" stroke-linecap="round"/>
<path d="M21 9H17.5M7 9H3" stroke="black" stroke-width="1.5"/>
</svg>
