<svg width="343" height="310" viewBox="0 0 343 310" fill="none" xmlns="http://www.w3.org/2000/svg">
<path d="M85.7666 176.464C85.7666 181.884 84.1309 186.425 80.8594 190.087C77.6367 193.7 73.4619 196.435 68.335 198.29C63.2568 200.097 57.8857 201 52.2217 201H2.70996V195.727C8.12988 195.727 11.5967 194.799 13.1104 192.943C14.6729 191.088 15.4541 187.865 15.4541 183.275V128.93C15.4541 124.291 14.6729 121.068 13.1104 119.262C11.5967 117.406 8.12988 116.479 2.70996 116.479V111.205H52.8076C59.6436 111.205 65.1611 112.328 69.3604 114.574C73.5596 116.82 76.6113 119.555 78.5156 122.777C80.4688 126 81.4453 129.125 81.4453 132.152C81.4453 135.18 80.9814 138.012 80.0537 140.648C79.1748 143.285 77.2217 145.653 74.1943 147.753C71.167 149.853 66.5039 151.684 60.2051 153.246C69.2383 155.053 75.7568 157.909 79.7607 161.815C83.7646 165.673 85.7666 170.556 85.7666 176.464ZM59.3262 133.837C59.3262 128.905 57.9834 125.219 55.2979 122.777C52.6123 120.336 47.7051 119.115 40.5762 119.115C39.5996 119.115 38.7695 119.164 38.0859 119.262C37.4512 119.359 36.8652 119.457 36.3281 119.555V150.39C36.6211 150.39 37.1582 150.414 37.9395 150.463C38.7207 150.512 39.5996 150.536 40.5762 150.536C46.9238 150.536 51.6357 149.022 54.7119 145.995C57.7881 142.968 59.3262 138.915 59.3262 133.837ZM62.4023 177.123C62.4023 170.336 60.4736 165.429 56.6162 162.401C52.8076 159.325 47.4609 157.787 40.5762 157.787C38.5742 157.787 37.1582 157.86 36.3281 158.007V185.326C36.3281 188.5 36.9141 190.6 38.0859 191.625C39.3066 192.65 41.1377 193.163 43.5791 193.163C46.3623 193.163 49.1943 192.772 52.0752 191.991C55.0049 191.161 57.4463 189.599 59.3994 187.304C61.4014 185.009 62.4023 181.615 62.4023 177.123ZM124.878 116.259C124.878 119.286 123.828 121.898 121.729 124.096C119.678 126.244 117.139 127.318 114.111 127.318C111.133 127.318 108.545 126.293 106.348 124.242C104.199 122.143 103.125 119.481 103.125 116.259C103.125 113.183 104.199 110.644 106.348 108.642C108.545 106.64 111.133 105.639 114.111 105.639C116.992 105.639 119.507 106.688 121.655 108.788C123.804 110.888 124.878 113.378 124.878 116.259ZM131.104 201H97.4121V195.727C100.586 195.727 102.612 195.141 103.491 193.969C104.419 192.748 104.883 190.209 104.883 186.352V158.812C104.883 155.297 104.614 152.929 104.077 151.708C103.589 150.487 102.637 149.877 101.221 149.877C99.5117 149.877 97.6074 150.194 95.5078 150.829L93.8965 145.922L118.506 138.524H123.779V186.425C123.779 190.282 124.292 192.797 125.317 193.969C126.343 195.141 128.271 195.727 131.104 195.727V201ZM204.932 165.551C204.932 172.582 203.833 178.93 201.636 184.594C199.487 190.258 196.167 194.75 191.675 198.07C187.183 201.391 181.47 203.051 174.536 203.051C172.583 203.051 170.435 202.685 168.091 201.952C165.796 201.269 164.014 200.341 162.744 199.169V215.502C162.744 219.506 163.232 222.069 164.209 223.192C165.234 224.315 167.139 224.877 169.922 224.877V230.15H136.304V224.877C139.478 224.877 141.528 224.242 142.456 222.973C143.384 221.703 143.848 219.213 143.848 215.502V158.959C143.848 155.492 143.506 153.148 142.822 151.928C142.188 150.658 141.211 150.023 139.893 150.023C139.111 150.023 138.33 150.121 137.549 150.316C136.768 150.463 135.962 150.683 135.132 150.976L132.861 146.508L157.471 138.671H162.744V150.829C165.869 146.483 169.116 143.358 172.485 141.454C175.854 139.501 179.248 138.524 182.666 138.524C186.523 138.524 190.137 139.623 193.506 141.82C196.924 143.969 199.683 147.069 201.782 151.122C203.882 155.175 204.932 159.984 204.932 165.551ZM185.449 172.289C185.449 168.773 185.059 165.38 184.277 162.108C183.545 158.837 182.324 156.151 180.615 154.052C178.955 151.952 176.758 150.902 174.023 150.902C172.412 150.902 170.654 151.415 168.75 152.44C166.895 153.466 164.893 155.126 162.744 157.421V185.253C162.744 189.11 163.672 192.04 165.527 194.042C167.432 195.995 170.068 196.972 173.438 196.972C175.488 196.972 177.417 196.239 179.224 194.774C181.079 193.31 182.568 190.795 183.691 187.23C184.863 183.617 185.449 178.637 185.449 172.289ZM244.702 112.67C244.702 119.75 242.578 125.731 238.33 130.614C234.131 135.448 228.345 138.939 220.972 141.088V137.865C224.976 136.254 228.076 134.252 230.273 131.859C232.52 129.418 234.082 126.977 234.961 124.535C235.889 122.045 236.353 119.945 236.353 118.236C236.353 117.797 236.255 117.309 236.06 116.771C235.864 116.186 235.425 115.893 234.741 115.893C234.253 115.893 233.618 116.21 232.837 116.845C232.056 117.479 230.664 117.797 228.662 117.797C225.977 117.797 223.633 116.747 221.631 114.647C219.678 112.548 218.701 109.936 218.701 106.811C218.701 103.686 219.8 101.024 221.997 98.8271C224.194 96.6299 226.855 95.5312 229.98 95.5312C234.082 95.5312 237.549 96.9717 240.381 99.8525C243.262 102.733 244.702 107.006 244.702 112.67ZM324.609 175.585C324.609 181.005 323.193 185.766 320.361 189.867C317.578 193.969 313.794 197.167 309.009 199.462C304.272 201.757 298.975 202.904 293.115 202.904C288.672 202.904 285.303 202.465 283.008 201.586C280.762 200.756 278.906 199.926 277.441 199.096C276.025 198.217 274.341 197.777 272.388 197.777C270.728 197.777 269.385 198.241 268.359 199.169C267.334 200.097 266.406 201.342 265.576 202.904H260.669V169.066H265.869C266.309 173.217 267.603 177.44 269.751 181.737C271.948 185.985 275.024 189.55 278.979 192.431C282.935 195.312 287.769 196.752 293.481 196.752C297.388 196.752 300.854 195.653 303.882 193.456C306.909 191.259 308.423 188.207 308.423 184.301C308.423 180.785 307.3 177.758 305.054 175.219C302.808 172.631 299.902 170.312 296.338 168.261C292.773 166.161 288.989 164.086 284.985 162.035C280.981 159.936 277.197 157.665 273.633 155.224C270.068 152.782 267.163 149.901 264.917 146.581C262.671 143.261 261.548 139.306 261.548 134.716C261.548 129.735 262.744 125.341 265.137 121.532C267.529 117.675 270.85 114.672 275.098 112.523C279.346 110.326 284.204 109.228 289.673 109.228C293.579 109.228 296.802 109.74 299.341 110.766C301.929 111.742 304.126 112.743 305.933 113.769C307.739 114.745 309.448 115.233 311.06 115.233C312.231 115.233 313.11 114.647 313.696 113.476C314.331 112.304 314.771 110.888 315.015 109.228H320.068V142.626H314.575C314.038 137.108 312.549 132.348 310.107 128.344C307.666 124.291 304.663 121.166 301.099 118.969C297.583 116.771 293.896 115.673 290.039 115.673C286.475 115.673 283.374 116.771 280.737 118.969C278.101 121.117 276.782 123.974 276.782 127.538C276.782 130.614 277.93 133.3 280.225 135.595C282.52 137.89 285.474 140.038 289.087 142.04C292.749 143.993 296.606 145.995 300.659 148.046C304.761 150.048 308.618 152.294 312.231 154.784C315.894 157.274 318.872 160.204 321.167 163.573C323.462 166.942 324.609 170.946 324.609 175.585Z" fill="black"/>
<path d="M178.632 219.414C178.386 220.91 177.913 222.217 177.212 223.334C176.511 224.447 175.649 225.311 174.627 225.926C173.609 226.542 172.498 226.85 171.296 226.85C170.065 226.85 169.035 226.537 168.206 225.912C167.382 225.287 166.802 224.411 166.466 223.284C166.135 222.158 166.09 220.844 166.331 219.343C166.587 217.846 167.065 216.542 167.766 215.429C168.471 214.312 169.335 213.445 170.358 212.83C171.381 212.214 172.496 211.907 173.703 211.907C174.911 211.907 175.929 212.219 176.757 212.844C177.586 213.464 178.168 214.338 178.504 215.465C178.845 216.587 178.888 217.903 178.632 219.414ZM177.773 219.343C178 217.988 177.974 216.819 177.695 215.834C177.42 214.849 176.937 214.092 176.246 213.561C175.559 213.026 174.707 212.759 173.689 212.759C172.647 212.759 171.677 213.031 170.777 213.576C169.878 214.12 169.113 214.892 168.483 215.891C167.858 216.885 167.43 218.059 167.198 219.414C166.97 220.768 166.994 221.937 167.269 222.922C167.543 223.902 168.026 224.66 168.717 225.195C169.409 225.73 170.268 225.997 171.296 225.997C172.347 225.997 173.322 225.725 174.222 225.181C175.126 224.631 175.891 223.86 176.516 222.865C177.141 221.866 177.56 220.692 177.773 219.343ZM188.955 218.093L188.124 218.292C188.053 217.889 187.926 217.546 187.741 217.262C187.556 216.973 187.301 216.753 186.974 216.601C186.652 216.445 186.247 216.367 185.759 216.367C184.94 216.367 184.242 216.57 183.664 216.978C183.087 217.385 182.746 217.91 182.641 218.554C182.556 219.066 182.656 219.487 182.94 219.818C183.224 220.15 183.704 220.403 184.382 220.578L186.001 220.997C186.825 221.211 187.414 221.561 187.769 222.049C188.129 222.536 188.25 223.133 188.132 223.838C188.037 224.44 187.788 224.97 187.386 225.429C186.988 225.884 186.481 226.239 185.866 226.495C185.25 226.75 184.564 226.878 183.806 226.878C182.784 226.878 181.983 226.639 181.406 226.161C180.828 225.678 180.518 224.989 180.475 224.094L181.335 223.924C181.368 224.629 181.6 225.167 182.031 225.536C182.462 225.9 183.075 226.083 183.87 226.083C184.775 226.083 185.539 225.867 186.164 225.436C186.789 225.006 187.156 224.456 187.265 223.789C187.346 223.292 187.253 222.875 186.988 222.539C186.723 222.202 186.278 221.956 185.653 221.8L183.998 221.374C183.136 221.151 182.518 220.796 182.144 220.309C181.775 219.816 181.65 219.215 181.768 218.505C181.867 217.927 182.104 217.418 182.478 216.978C182.857 216.537 183.335 216.194 183.913 215.948C184.49 215.702 185.127 215.578 185.823 215.578C186.756 215.578 187.478 215.799 187.989 216.239C188.501 216.675 188.823 217.292 188.955 218.093ZM194.888 226.878C193.903 226.878 193.086 226.634 192.437 226.147C191.789 225.659 191.336 224.991 191.081 224.144C190.825 223.296 190.787 222.33 190.967 221.246C191.147 220.157 191.507 219.186 192.047 218.334C192.586 217.482 193.247 216.809 194.028 216.317C194.809 215.825 195.652 215.578 196.557 215.578C197.167 215.578 197.724 215.702 198.226 215.948C198.732 216.194 199.158 216.547 199.504 217.006C199.85 217.461 200.089 218.012 200.221 218.661C200.354 219.309 200.354 220.039 200.221 220.848L200.122 221.388H191.486L191.621 220.6H199.383C199.516 219.814 199.478 219.104 199.27 218.469C199.061 217.83 198.716 217.323 198.233 216.949C197.755 216.575 197.167 216.388 196.471 216.388C195.761 216.388 195.084 216.594 194.44 217.006C193.801 217.413 193.252 217.958 192.792 218.64C192.338 219.321 192.035 220.072 191.883 220.891L191.798 221.331C191.647 222.269 191.665 223.095 191.855 223.81C192.049 224.52 192.409 225.077 192.934 225.479C193.46 225.877 194.147 226.076 194.994 226.076C195.586 226.076 196.112 225.976 196.571 225.777C197.035 225.574 197.428 225.327 197.75 225.039C198.076 224.75 198.332 224.47 198.517 224.201L199.234 224.52C199.016 224.885 198.704 225.249 198.297 225.614C197.889 225.974 197.399 226.274 196.826 226.516C196.254 226.757 195.607 226.878 194.888 226.878ZM201.874 226.651L202.009 225.919L209.943 216.644L209.957 216.566H203.906L204.048 215.742H211.214L211.079 216.488L203.224 225.749L203.21 225.827H209.793L209.651 226.651H201.874ZM221.122 226.885C220.492 226.885 219.936 226.76 219.453 226.509C218.974 226.258 218.617 225.891 218.38 225.408C218.143 224.925 218.079 224.338 218.188 223.647C218.269 223.192 218.418 222.792 218.636 222.446C218.854 222.101 219.152 221.802 219.531 221.551C219.909 221.3 220.373 221.095 220.923 220.934C221.477 220.768 222.123 220.64 222.862 220.55C223.43 220.484 223.936 220.417 224.382 220.351C224.827 220.285 225.186 220.183 225.461 220.046C225.736 219.908 225.897 219.702 225.944 219.428L226.015 218.973C226.148 218.183 226.013 217.553 225.61 217.084C225.208 216.611 224.566 216.374 223.686 216.374C222.909 216.374 222.213 216.549 221.597 216.899C220.982 217.245 220.523 217.683 220.22 218.213L219.467 217.908C219.76 217.387 220.132 216.954 220.582 216.608C221.036 216.263 221.534 216.005 222.073 215.834C222.618 215.664 223.172 215.578 223.735 215.578C224.223 215.578 224.677 215.647 225.099 215.784C225.52 215.922 225.88 216.13 226.178 216.409C226.481 216.689 226.697 217.046 226.825 217.482C226.957 217.913 226.971 218.429 226.867 219.03L225.603 226.651H224.737L225.07 224.684H225.007C224.751 225.091 224.429 225.462 224.041 225.799C223.657 226.13 223.219 226.395 222.727 226.594C222.234 226.788 221.699 226.885 221.122 226.885ZM221.285 226.083C221.967 226.083 222.601 225.917 223.188 225.586C223.78 225.249 224.277 224.79 224.68 224.208C225.087 223.625 225.35 222.965 225.468 222.226L225.745 220.621C225.617 220.716 225.444 220.801 225.227 220.877C225.009 220.948 224.765 221.012 224.495 221.068C224.23 221.121 223.953 221.168 223.664 221.211C223.38 221.248 223.103 221.284 222.833 221.317C222.024 221.412 221.354 221.559 220.823 221.757C220.293 221.952 219.883 222.207 219.595 222.524C219.311 222.842 219.128 223.225 219.048 223.675C218.929 224.418 219.081 225.006 219.502 225.436C219.928 225.867 220.523 226.083 221.285 226.083ZM236.871 222.78L238.043 215.742H238.909L237.091 226.651H236.225L236.523 224.882H236.445C236.104 225.446 235.616 225.905 234.982 226.26C234.347 226.615 233.642 226.793 232.865 226.793C232.15 226.793 231.544 226.637 231.047 226.324C230.55 226.012 230.192 225.569 229.975 224.996C229.761 224.418 229.721 223.732 229.854 222.936L231.054 215.742H231.921L230.727 222.901C230.581 223.81 230.737 224.546 231.196 225.11C231.655 225.668 232.323 225.948 233.199 225.948C233.767 225.948 234.309 225.82 234.825 225.564C235.346 225.309 235.789 224.944 236.154 224.47C236.523 223.992 236.762 223.429 236.871 222.78ZM246.356 215.742L246.221 216.516H241.462L241.59 215.742H246.356ZM243.629 213.128H244.488L242.684 224.073C242.608 224.518 242.632 224.882 242.755 225.167C242.883 225.446 243.075 225.654 243.33 225.792C243.591 225.924 243.887 225.99 244.218 225.99C244.365 225.99 244.498 225.979 244.616 225.955C244.734 225.926 244.853 225.896 244.971 225.863L245.049 226.651C244.902 226.703 244.746 226.746 244.58 226.779C244.415 226.812 244.223 226.828 244.005 226.828C243.551 226.828 243.139 226.727 242.769 226.523C242.405 226.319 242.128 226.024 241.938 225.635C241.754 225.247 241.709 224.778 241.803 224.229L243.629 213.128ZM247.752 226.651L249.57 215.742H250.415L250.131 217.446H250.209C250.531 216.888 251.004 216.44 251.629 216.104C252.254 215.763 252.927 215.593 253.646 215.593C253.727 215.593 253.803 215.593 253.874 215.593C253.945 215.593 254.016 215.595 254.087 215.6L253.938 216.473C253.881 216.469 253.812 216.461 253.732 216.452C253.656 216.438 253.561 216.431 253.448 216.431C252.842 216.431 252.28 216.561 251.764 216.821C251.248 217.082 250.817 217.442 250.472 217.901C250.126 218.355 249.906 218.876 249.811 219.463L248.618 226.651H247.752ZM258.462 226.878C257.477 226.878 256.66 226.634 256.011 226.147C255.363 225.659 254.911 224.991 254.655 224.144C254.399 223.296 254.361 222.33 254.541 221.246C254.721 220.157 255.081 219.186 255.621 218.334C256.161 217.482 256.821 216.809 257.602 216.317C258.384 215.825 259.226 215.578 260.131 215.578C260.742 215.578 261.298 215.702 261.8 215.948C262.306 216.194 262.733 216.547 263.078 217.006C263.424 217.461 263.663 218.012 263.796 218.661C263.928 219.309 263.928 220.039 263.796 220.848L263.696 221.388H255.06L255.195 220.6H262.958C263.09 219.814 263.052 219.104 262.844 218.469C262.636 217.83 262.29 217.323 261.807 216.949C261.329 216.575 260.742 216.388 260.046 216.388C259.335 216.388 258.658 216.594 258.014 217.006C257.375 217.413 256.826 217.958 256.367 218.64C255.912 219.321 255.609 220.072 255.458 220.891L255.372 221.331C255.221 222.269 255.24 223.095 255.429 223.81C255.623 224.52 255.983 225.077 256.509 225.479C257.034 225.877 257.721 226.076 258.568 226.076C259.16 226.076 259.686 225.976 260.145 225.777C260.609 225.574 261.002 225.327 261.324 225.039C261.651 224.75 261.906 224.47 262.091 224.201L262.808 224.52C262.591 224.885 262.278 225.249 261.871 225.614C261.464 225.974 260.974 226.274 260.401 226.516C259.828 226.757 259.181 226.878 258.462 226.878ZM265.818 226.651L267.636 215.742H268.481L268.197 217.39H268.282C268.59 216.845 269.026 216.412 269.589 216.09C270.157 215.763 270.801 215.6 271.521 215.6C272.307 215.6 272.911 215.789 273.332 216.168C273.754 216.547 274.021 217.06 274.135 217.709H274.213C274.525 217.065 274.989 216.554 275.605 216.175C276.225 215.792 276.94 215.6 277.75 215.6C278.801 215.6 279.549 215.934 279.994 216.601C280.444 217.264 280.572 218.173 280.378 219.328L279.156 226.651H278.29L279.511 219.328C279.658 218.415 279.563 217.7 279.227 217.184C278.891 216.663 278.301 216.402 277.459 216.402C276.559 216.402 275.816 216.684 275.228 217.247C274.641 217.811 274.277 218.528 274.135 219.399L272.92 226.651H272.054L273.282 219.272C273.42 218.419 273.327 217.728 273.005 217.198C272.683 216.667 272.094 216.402 271.237 216.402C270.664 216.402 270.141 216.535 269.667 216.8C269.194 217.065 268.801 217.43 268.488 217.894C268.176 218.358 267.972 218.89 267.878 219.492L266.684 226.651H265.818ZM286.977 226.878C285.993 226.878 285.176 226.634 284.527 226.147C283.878 225.659 283.426 224.991 283.171 224.144C282.915 223.296 282.877 222.33 283.057 221.246C283.237 220.157 283.597 219.186 284.136 218.334C284.676 217.482 285.337 216.809 286.118 216.317C286.899 215.825 287.742 215.578 288.646 215.578C289.257 215.578 289.814 215.702 290.315 215.948C290.822 216.194 291.248 216.547 291.594 217.006C291.94 217.461 292.179 218.012 292.311 218.661C292.444 219.309 292.444 220.039 292.311 220.848L292.212 221.388H283.575L283.71 220.6H291.473C291.606 219.814 291.568 219.104 291.36 218.469C291.151 217.83 290.806 217.323 290.323 216.949C289.844 216.575 289.257 216.388 288.561 216.388C287.851 216.388 287.174 216.594 286.53 217.006C285.891 217.413 285.342 217.958 284.882 218.64C284.428 219.321 284.125 220.072 283.973 220.891L283.888 221.331C283.736 222.269 283.755 223.095 283.945 223.81C284.139 224.52 284.499 225.077 285.024 225.479C285.55 225.877 286.236 226.076 287.084 226.076C287.676 226.076 288.201 225.976 288.661 225.777C289.125 225.574 289.518 225.327 289.84 225.039C290.166 224.75 290.422 224.47 290.607 224.201L291.324 224.52C291.106 224.885 290.794 225.249 290.386 225.614C289.979 225.974 289.489 226.274 288.916 226.516C288.343 226.757 287.697 226.878 286.977 226.878ZM296.372 219.577L295.2 226.651H294.334L296.152 215.742H296.997L296.713 217.468H296.798C297.139 216.904 297.622 216.452 298.247 216.111C298.872 215.77 299.573 215.6 300.349 215.6C301.078 215.6 301.696 215.756 302.203 216.068C302.71 216.381 303.072 216.826 303.29 217.404C303.507 217.977 303.55 218.661 303.417 219.456L302.217 226.651H301.351L302.544 219.492C302.695 218.564 302.549 217.818 302.103 217.255C301.663 216.686 300.991 216.402 300.086 216.402C299.476 216.402 298.907 216.535 298.382 216.8C297.861 217.065 297.423 217.437 297.068 217.915C296.713 218.389 296.481 218.943 296.372 219.577ZM311.493 215.742L311.358 216.516H306.599L306.727 215.742H311.493ZM308.765 213.128H309.625L307.821 224.073C307.745 224.518 307.769 224.882 307.892 225.167C308.02 225.446 308.211 225.654 308.467 225.792C308.728 225.924 309.023 225.99 309.355 225.99C309.502 225.99 309.634 225.979 309.753 225.955C309.871 225.926 309.989 225.896 310.108 225.863L310.186 226.651C310.039 226.703 309.883 226.746 309.717 226.779C309.551 226.812 309.36 226.828 309.142 226.828C308.687 226.828 308.275 226.727 307.906 226.523C307.541 226.319 307.264 226.024 307.075 225.635C306.89 225.247 306.845 224.778 306.94 224.229L308.765 213.128Z" fill="#BFBFBF"/>
</svg>
