<svg width="29" height="28" viewBox="0 0 29 28" fill="none" xmlns="http://www.w3.org/2000/svg">
<path d="M6.04166 10.597C6.04166 9.23666 7.24999 8.75016 7.85416 8.75016C9.05524 8.75016 9.66666 9.62983 9.66666 10.597C9.66666 12.8522 8.04386 14.0002 6.04166 14.0002C4.03945 14.0002 2.41666 12.172 2.41666 9.91683C2.41666 7.66166 4.03945 5.8335 6.04166 5.8335M6.04166 5.8335H22.9583M6.04166 5.8335C6.04166 4.18266 6.04166 3.35783 6.57332 2.84683C7.10378 2.3335 7.95807 2.3335 9.66666 2.3335H19.3333C21.0431 2.3335 21.8974 2.3335 22.4267 2.84683C22.9583 3.359 22.9583 4.18383 22.9583 5.8335M22.9583 5.8335C24.9605 5.8335 26.5833 7.66166 26.5833 9.91683C26.5833 12.172 24.9605 14.0002 22.9583 14.0002C20.9561 14.0002 19.3333 12.8522 19.3333 10.597C19.3333 9.62866 19.9447 8.75016 21.1458 8.75016C21.75 8.75016 22.9583 9.23666 22.9583 10.597M15.7083 10.5002H13.2917M11.4792 22.1668V17.5002M17.5208 22.1668V17.5002M3.62499 23.3335C3.62499 23.0241 3.7523 22.7273 3.9789 22.5085C4.20551 22.2897 4.51285 22.1668 4.83332 22.1668H24.1667C24.4871 22.1668 24.7945 22.2897 25.0211 22.5085C25.2477 22.7273 25.375 23.0241 25.375 23.3335V24.5002C25.375 24.8096 25.2477 25.1063 25.0211 25.3251C24.7945 25.5439 24.4871 25.6668 24.1667 25.6668H4.83332C4.51285 25.6668 4.20551 25.5439 3.9789 25.3251C3.7523 25.1063 3.62499 24.8096 3.62499 24.5002V23.3335Z" stroke="black" stroke-width="1.5" stroke-linecap="round" stroke-linejoin="round"/>
<path d="M6.04166 14V22.1667H22.9583V14" stroke="black" stroke-width="1.5" stroke-linecap="round" stroke-linejoin="round"/>
</svg>
